<svg xmlns="http://www.w3.org/2000/svg" width="1024" height="1024" viewBox="0 0 1024 1024">
  <rect width="1024" height="1024" rx="220" fill="#111111"/>
  <g transform="translate(162,942) scale(0.054,-0.054)" fill="#4ade80" stroke="none">
    <path d="M6960 11654 c-509 -47 -1062 -203 -1437 -406 -64 -34 -110 -65 -106
-71 3 -6 1 -7 -6 -3 -12 8 -137 -74 -231 -152 -149 -124 -291 -304 -364 -463
-79 -172 -110 -333 -104 -552 l3 -138 -80 -48 c-132 -80 -242 -187 -306 -299
-73 -129 -117 -340 -105 -510 24 -348 168 -624 406 -778 60 -39 196 -94 232
-94 8 0 22 -34 37 -92 74 -292 223 -549 438 -755 l75 -72 -32 -53 c-18 -29
-83 -125 -144 -213 -96 -138 -172 -253 -321 -490 -58 -92 -172 -299 -237 -430
-142 -284 -238 -546 -318 -865 -39 -153 -51 -217 -90 -460 -85 -531 -58 -960
90 -1423 65 -204 199 -453 324 -602 56 -66 86 -110 86 -125 0 -20 -52 -144
-74 -174 -80 -113 -201 -196 -337 -231 -93 -25 -239 -17 -305 16 -69 34 -88
69 -114 205 -46 243 -80 325 -174 420 -95 94 -196 134 -346 134 -285 0 -516
-182 -601 -475 -21 -71 -24 -101 -24 -260 0 -195 12 -274 65 -435 109 -334
354 -620 656 -768 317 -156 714 -197 1141 -117 240 44 338 76 513 166 186 96
319 197 529 403 166 162 237 251 429 537 62 92 118 172 127 179 11 9 53 9 197
0 210 -15 578 -8 879 15 845 66 1092 112 1371 253 233 118 333 187 388 267 16
23 51 55 77 70 95 55 149 122 187 236 45 135 44 309 -4 417 -24 54 -129 159
-197 197 l-51 29 24 31 c31 41 140 270 198 417 69 174 116 403 116 569 l0 66
65 28 c142 60 236 161 287 305 20 57 23 84 23 215 0 122 -5 166 -23 238 -44
171 -114 328 -200 451 -126 180 -159 218 -466 531 -297 302 -429 502 -524 795
-58 176 -129 550 -107 562 87 50 244 203 313 305 123 180 190 416 193 668 0
44 3 87 7 97 4 9 34 36 67 60 100 74 209 207 218 266 2 11 8 26 15 34 21 26
43 132 48 238 13 236 -75 556 -195 714 -112 149 -226 223 -405 265 l-68 16
-43 123 c-101 284 -252 514 -447 677 -48 41 -109 86 -135 101 -26 15 -55 32
-63 39 -35 26 -206 99 -297 126 -156 47 -315 70 -518 74 -99 1 -200 1 -225 -1z
m605 -209 c150 -35 292 -93 397 -162 l38 -26 -52 -24 c-29 -13 -68 -36 -86
-49 l-33 -26 -72 71 c-95 93 -214 175 -321 220 -25 11 -46 22 -46 25 0 7 65
-4 175 -29z m-450 -63 c176 -38 355 -125 485 -235 118 -101 117 -92 20 -236
-53 -77 -91 -123 -104 -126 -12 -2 -109 -6 -216 -9 -263 -7 -473 -44 -710
-124 -91 -31 -253 -96 -283 -113 -15 -8 -28 0 -75 41 -31 29 -97 79 -147 112
-92 61 -317 175 -392 198 -49 15 -48 16 18 87 100 107 232 202 364 263 151 70
402 141 575 163 87 12 377 -2 465 -21z m-1565 -329 c-173 -223 -254 -448 -267
-744 -5 -111 7 -285 23 -341 5 -16 -4 -17 -108 -11 -103 5 -142 2 -282 -23
l-38 -7 4 159 c6 174 23 258 80 389 85 194 249 378 467 523 68 45 128 82 133
82 5 0 0 -12 -12 -27z m2560 -58 c72 -56 154 -150 233 -270 203 -308 323 -707
423 -1405 22 -153 27 -224 28 -410 1 -246 -8 -317 -63 -476 -57 -163 -154
-288 -333 -427 -48 -36 -81 -69 -85 -84 -15 -63 28 -362 83 -561 54 -201 173
-475 275 -637 88 -141 168 -234 409 -480 307 -313 376 -401 452 -578 73 -169
98 -368 63 -515 -30 -127 -119 -212 -240 -229 l-46 -6 36 53 c51 76 69 146 62
244 -10 142 -34 184 -89 155 -33 -17 -36 -24 -44 -118 -11 -143 -52 -223 -120
-237 -63 -12 -122 78 -168 263 -47 184 -54 330 -30 599 6 66 5 73 -15 83 -48
26 -125 -52 -155 -157 l-16 -59 -68 15 c-46 10 -103 12 -185 9 -118 -5 -119
-5 -113 16 42 173 56 672 23 826 -22 102 -41 141 -67 141 -35 0 -47 -67 -81
-440 -13 -149 -49 -373 -85 -526 -25 -107 -27 -111 -62 -130 -56 -29 -162
-137 -162 -165 0 -27 27 -59 50 -59 10 0 50 15 91 34 141 64 232 88 368 94
114 4 238 -7 268 -26 6 -4 16 -61 22 -127 15 -150 35 -239 76 -336 40 -96 96
-180 159 -243 51 -50 153 -106 194 -106 20 0 22 -4 22 -61 0 -174 -70 -470
-150 -633 -116 -237 -247 -360 -645 -608 -93 -58 -207 -127 -253 -153 -95 -55
-132 -93 -132 -136 0 -98 202 -40 487 139 266 167 325 194 428 195 104 1 161
-37 206 -137 44 -100 35 -217 -23 -297 l-29 -40 -39 58 c-52 76 -102 113 -152
113 -55 0 -67 -29 -40 -101 87 -235 -14 -371 -363 -487 -298 -99 -638 -159
-1155 -203 -81 -7 -307 -13 -510 -13 -333 0 -376 2 -494 22 -139 24 -170 22
-226 -18 -16 -12 -42 -42 -56 -68 -202 -359 -424 -636 -689 -857 -336 -281
-634 -385 -1107 -385 -425 0 -722 113 -957 365 -116 124 -203 290 -253 483
-28 107 -31 131 -32 287 -1 162 0 174 28 258 34 104 90 174 178 222 49 28 61
30 153 30 88 -1 106 -4 150 -27 64 -33 96 -68 133 -143 33 -67 44 -111 68
-265 9 -58 25 -127 36 -153 85 -199 475 -244 794 -92 218 105 366 288 425 525
45 180 23 399 -40 408 -29 5 -34 -3 -67 -102 l-26 -78 -24 28 c-179 213 -305
535 -375 954 -32 191 -32 509 -1 770 97 799 328 1386 877 2230 191 293 215
331 215 340 0 18 18 10 72 -33 51 -42 138 -97 206 -131 57 -29 181 -57 203
-45 31 16 22 44 -26 78 -204 146 -584 518 -727 712 -119 161 -208 384 -224
566 -7 74 -7 75 14 64 27 -14 44 -14 65 2 17 12 17 17 -3 97 -26 111 -26 165
3 220 28 56 93 98 165 107 59 7 58 9 36 -78 -13 -51 -14 -75 -6 -127 19 -113
69 -171 133 -155 20 6 23 16 20 73 -6 103 41 250 79 250 33 0 95 -73 144 -169
101 -200 257 -379 485 -556 496 -386 592 -472 703 -636 45 -66 163 -289 153
-289 -2 0 5 -26 16 -57 45 -132 62 -347 38 -478 -43 -233 -245 -408 -544 -472
-36 -7 -40 -11 -40 -38 0 -26 5 -31 45 -43 75 -22 249 -11 335 22 156 60 286
168 353 294 212 398 66 965 -361 1401 -113 115 -246 225 -437 361 -251 179
-402 315 -484 435 l-39 56 27 67 c14 37 31 92 37 122 14 78 12 290 -5 390 -51
309 -222 610 -419 739 -35 23 -68 41 -74 41 -28 0 -58 263 -50 440 8 168 72
420 108 420 16 0 218 -103 284 -145 72 -46 143 -104 250 -206 114 -108 142
-111 301 -38 335 155 616 214 1019 214 245 0 310 -8 473 -60 184 -59 131 74
-73 181 -41 21 -75 44 -75 50 0 19 95 147 146 196 63 61 131 108 157 108 5 0
35 -20 67 -45z m-3045 -1280 c107 -28 235 -115 300 -203 56 -76 112 -191 139
-286 34 -115 35 -124 43 -237 l6 -95 -49 5 -49 6 -8 69 c-4 37 -16 105 -27
150 -79 314 -225 494 -453 556 -52 14 -67 27 -46 41 21 13 78 11 144 -6z
m-242 -415 c79 -41 131 -106 174 -217 21 -56 26 -86 26 -169 1 -92 -1 -104
-26 -146 -39 -67 -78 -91 -153 -96 -115 -8 -217 62 -277 188 -27 57 -32 78
-35 167 -5 120 11 182 61 233 69 71 144 84 230 40z M7860 10142 c-55 -25 -90
-79 -90 -139 0 -57 23 -83 70 -83 33 0 47 7 84 43 69 66 74 130 13 167 -33 21
-51 23 -77 12z M6786 9920 c-88 -28 -100 -124 -22 -175 36 -24 139 -38 186
-25 89 24 97 132 15 186 -29 19 -137 28 -179 14z M8140 9867 c-117 -33 -219
-141 -252 -267 -19 -75 -23 -225 -7 -300 14 -66 64 -139 114 -167 112 -63 331
2 470 142 76 76 89 113 75 217 -19 132 -55 212 -129 285 -86 85 -179 116 -271
90z m183 -182 c49 -48 83 -117 97 -198 11 -62 11 -68 -11 -98 -31 -45 -131
-106 -195 -120 -30 -7 -57 -10 -60 -6 -3 3 8 23 25 44 55 68 74 142 75 280 1
85 -3 126 -11 134 -7 7 -13 17 -13 21 0 14 53 -18 93 -57z M6608 9529 c-141
-21 -278 -124 -340 -256 -28 -58 -33 -82 -36 -164 -5 -127 13 -193 71 -253
133 -138 523 -144 771 -12 109 58 139 122 113 241 -45 209 -140 339 -299 409
-81 36 -185 49 -280 35z m283 -212 c63 -47 106 -109 129 -183 33 -108 29 -124
-34 -163 -95 -57 -254 -92 -333 -74 l-32 8 56 45 c94 75 142 184 146 335 1 42
6 65 14 65 6 0 31 -15 54 -33z M7660 8991 c-58 -18 -130 -63 -164 -102 -61
-72 -45 -133 48 -174 60 -27 81 -48 89 -91 12 -64 -3 -106 -57 -159 -91 -89
-207 -111 -326 -60 -36 14 -77 32 -92 38 -60 25 -112 -60 -73 -120 18 -26 88
-61 168 -83 72 -19 217 -8 292 23 75 31 167 113 206 182 l30 53 50 -34 c59
-39 99 -49 194 -48 121 2 224 54 265 135 26 51 26 93 -2 119 -34 31 -58 24
-109 -29 -46 -49 -116 -81 -173 -81 -70 0 -160 58 -186 120 -11 26 -9 34 14
72 14 24 36 55 47 69 43 54 20 137 -46 165 -36 15 -133 17 -175 5z M9118
11269 c-17 -7 -34 -26 -46 -52 -30 -63 -76 -260 -68 -290 7 -30 50 -55 84 -49
30 5 89 81 136 176 55 111 50 178 -14 211 -33 17 -53 18 -92 4z M9520 10887
c-115 -60 -230 -169 -230 -219 0 -31 36 -58 78 -58 66 0 268 100 258 127 -3 7
1 10 9 6 10 -3 18 5 25 22 17 45 12 75 -19 106 -33 32 -78 38 -121 16z M3895
10489 c-63 -37 -87 -90 -66 -151 29 -84 149 -246 202 -273 55 -29 109 7 109
70 0 65 -96 311 -132 338 -30 23 -87 31 -113 16z M3474 9961 c-38 -17 -64 -60
-64 -108 0 -54 26 -83 123 -136 138 -75 238 -96 277 -57 41 41 20 91 -74 176
-112 103 -207 148 -262 125z M3377 9299 c-15 -11 -31 -38 -37 -60 -10 -35 -8
-47 10 -83 11 -24 32 -48 46 -54 32 -15 246 -16 299 -1 51 14 85 45 85 79 0
51 -83 97 -229 124 -110 21 -143 20 -174 -5z"/>
  </g>
</svg>